Coordinates
version=1
nRows=29
nColumns=24
inDegrees=yes

Units are S.I. units (second, meters, Newtons, ...)
If the header above contains a line with 'inDegrees', this indicates whether rotational values are in degrees (yes) or radians (no).

endheader
time	pelvis_tilt	pelvis_list	pelvis_rotation	pelvis_tx	pelvis_ty	pelvis_tz	hip_flexion_r	hip_adduction_r	hip_rotation_r	knee_angle_r	ankle_angle_r	subtalar_angle_r	mtp_angle_r	hip_flexion_l	hip_adduction_l	hip_rotation_l	knee_angle_l	ankle_angle_l	subtalar_angle_l	mtp_angle_l	lumbar_extension	lumbar_bending	lumbar_rotation
5.975000	8.281329	1.560165	-179.592373	0.279455	0.615340	-1.219574	60.261405	-28.274237	-16.147133	-94.468849	37.308716	11.158193	0.000000	62.907257	-32.384408	-9.956806	-93.276382	36.670518	20.478117	0.000000	-9.553673	1.733976	0.774346
5.980000	8.294486	1.536049	-179.600726	0.279275	0.618103	-1.219528	59.931336	-28.196739	-16.305821	-93.910236	37.085378	11.102802	0.000000	62.508809	-32.292288	-10.214399	-92.714976	36.442142	20.395598	0.000000	-9.470718	1.736081	0.729283
5.985000	8.336018	1.539703	-179.632147	0.279154	0.620957	-1.219574	59.610726	-28.073215	-16.490622	-93.316760	36.801022	11.110020	0.000000	62.145003	-32.226510	-10.443628	-92.137629	36.157767	20.384536	0.000000	-9.366992	1.753491	0.741378
5.990000	8.398145	1.522626	-179.632166	0.279044	0.623869	-1.219595	59.298054	-27.975788	-16.667050	-92.700067	36.530841	11.090619	0.000000	61.794728	-32.120335	-10.684530	-91.536440	35.851182	20.358716	0.000000	-9.238524	1.768193	0.670328
5.995000	8.455684	1.441017	-179.642146	0.278979	0.626885	-1.219545	59.005296	-27.909875	-16.764550	-92.053525	36.258630	11.106564	0.000000	61.512935	-31.913137	-10.606657	-90.684146	35.112391	20.595559	0.000000	-9.118483	1.702314	0.651416
6.000000	8.469489	1.448671	-179.644708	0.278767	0.630022	-1.219536	58.592737	-27.796354	-16.987645	-91.387014	35.986073	11.087311	0.000000	61.075697	-31.809964	-10.846161	-90.034965	34.848902	20.562174	0.000000	-9.032815	1.719223	0.616544
6.005000	8.534666	1.448423	-179.667826	0.278647	0.633095	-1.219608	58.268130	-27.662684	-17.177586	-90.735063	35.675407	11.113317	0.000000	60.686289	-31.707464	-11.099428	-89.341703	34.540195	20.492436	0.000000	-8.894030	1.714495	0.631526
6.010000	8.523033	1.458386	-179.704523	0.278395	0.636376	-1.219588	57.824308	-27.516693	-17.390728	-90.046004	35.420527	11.048167	0.000000	60.172985	-31.635590	-11.381552	-88.673966	34.316844	20.379925	0.000000	-8.831674	1.740323	0.651463
6.015000	8.612278	1.457123	-179.725717	0.278234	0.639556	-1.219581	57.490433	-27.393943	-17.601415	-89.342786	35.108937	11.080536	0.000000	59.798167	-31.522847	-11.633208	-87.991603	34.019573	20.363851	0.000000	-8.659229	1.758062	0.637705
6.020000	8.575818	1.433874	-179.761310	0.277983	0.642984	-1.219679	57.015816	-27.256163	-17.783646	-88.618232	34.823205	11.062322	0.000000	59.262368	-31.419676	-11.925796	-87.355362	33.578318	20.199576	0.000000	-8.626941	1.741315	0.615399
6.025000	8.699455	1.434095	-179.812162	0.277709	0.646281	-1.219534	56.693640	-27.118385	-17.988094	-87.857307	34.460027	11.115001	0.000000	58.880265	-31.301072	-12.207493	-86.645263	33.298947	20.162935	0.000000	-8.409495	1.790834	0.597983
6.030000	8.674995	1.406240	-179.828001	0.277462	0.649771	-1.219641	56.227242	-26.987499	-18.180392	-87.124044	34.141794	11.061479	0.000000	58.337078	-31.170961	-12.499583	-85.902090	32.962599	20.037051	0.000000	-8.363297	1.751255	0.601104
6.035000	8.693050	1.396728	-179.862166	0.277184	0.653221	-1.219627	55.799252	-26.846929	-18.388759	-86.376994	33.814966	11.057968	0.000000	57.853438	-31.052088	-12.797781	-85.154963	32.587880	19.880205	0.000000	-8.256465	1.748534	0.611269
6.040000	8.770187	1.396086	-179.908147	0.276930	0.656651	-1.219601	55.425849	-26.693090	-18.596080	-85.606136	33.438294	11.102231	0.000000	57.399193	-30.930393	-13.044142	-84.357392	32.332127	19.879025	0.000000	-8.081150	1.750430	0.649516
6.045000	8.798208	1.394051	-179.954174	0.276579	0.660233	-1.219592	54.960337	-26.525573	-18.814364	-84.793207	33.124308	11.084805	0.000000	56.880636	-30.805831	-13.327608	-83.569079	32.010688	19.781376	0.000000	-7.961468	1.770905	0.635806
6.050000	8.799354	1.376669	-179.974409	0.276268	0.663795	-1.219658	54.474218	-26.388181	-19.028614	-83.989262	32.790939	11.140719	0.000000	56.338608	-30.660728	-13.618936	-82.776232	31.654022	19.700375	0.000000	-7.865634	1.743605	0.641734
6.055000	8.812981	1.338419	-179.978244	0.275968	0.667387	-1.219675	54.007277	-26.263360	-19.217294	-83.178543	32.443529	11.174579	0.000000	55.802723	-30.476771	-13.957412	-81.943207	31.266038	19.523341	0.000000	-7.752612	1.706490	0.626659
6.060000	8.856552	1.348948	-180.009800	0.275594	0.671011	-1.219624	53.547846	-26.107409	-19.470308	-82.354164	32.077611	11.173415	0.000000	55.311853	-30.341918	-14.220126	-81.141133	30.909484	19.405300	0.000000	-7.601389	1.742665	0.618723
6.065000	8.955969	1.380001	-180.078667	0.275260	0.674619	-1.219604	53.157717	-25.900477	-19.704553	-81.516228	31.667715	11.219782	0.000000	54.883725	-30.243528	-14.434200	-80.340684	30.524437	19.394224	0.000000	-7.385024	1.793752	0.672347
6.070000	8.966539	1.372535	-180.120341	0.274845	0.678292	-1.219570	52.665300	-25.728911	-19.919476	-80.666449	31.302834	11.180532	0.000000	54.324812	-30.104789	-14.740653	-79.517022	30.173249	19.275568	0.000000	-7.276394	1.813024	0.665787
6.075000	8.972854	1.390025	-180.144686	0.274405	0.681988	-1.219581	52.133676	-25.550136	-20.170276	-79.789951	30.924203	11.227518	0.000000	53.720870	-29.962116	-15.156045	-78.634041	29.872240	18.999225	0.000000	-7.164957	1.839515	0.652456
6.080000	8.968871	1.365194	-180.134060	0.274022	0.685666	-1.219641	51.607135	-25.422749	-20.407864	-78.928660	30.562476	11.281948	0.000000	53.160806	-29.765589	-15.419711	-77.772597	29.457137	18.877849	0.000000	-7.075564	1.809143	0.579612
6.085000	9.072016	1.351808	-180.189788	0.273637	0.689290	-1.219543	51.216491	-25.248428	-20.598107	-78.042811	30.138862	11.368700	0.000000	52.741968	-29.603032	-15.555444	-76.941644	28.997986	18.960473	0.000000	-6.882247	1.842647	0.517539
6.090000	9.058720	1.389044	-180.231243	0.273163	0.693092	-1.219535	50.665227	-25.035850	-20.848332	-77.152603	29.749891	11.378400	0.000000	52.169467	-29.497227	-15.813380	-76.070692	28.607498	18.839401	0.000000	-6.788237	1.882419	0.555222
6.095000	9.054214	1.399283	-180.282107	0.272707	0.696827	-1.219551	50.129928	-24.836583	-21.083974	-76.266837	29.358801	11.405126	0.000000	51.523921	-29.358895	-16.222126	-75.234082	28.288545	18.572777	0.000000	-6.676984	1.889754	0.601328
6.100000	9.102416	1.415537	-180.319761	0.272228	0.700491	-1.219404	49.646612	-24.650862	-21.304968	-75.351964	28.908090	11.477182	0.000000	51.000817	-29.187366	-16.468884	-74.353106	27.890310	18.397959	0.000000	-6.528486	1.932942	0.616118
6.105000	9.211147	1.389414	-180.344410	0.271850	0.704205	-1.219363	49.227686	-24.473897	-21.500057	-74.405631	28.436668	11.520731	0.000000	50.564749	-28.975452	-16.632535	-73.438109	27.389003	18.457967	0.000000	-6.279563	1.940072	0.566318
6.110000	9.201309	1.395742	-180.359768	0.271257	0.707968	-1.219383	48.651328	-24.289909	-21.759750	-73.475560	28.028288	11.473208	0.000000	49.956749	-28.816107	-16.910102	-72.518185	26.930806	18.330019	0.000000	-6.269535	2.090678	0.157511
6.115000	9.226394	1.420936	-180.421581	0.270817	0.711684	-1.219316	48.142545	-24.051845	-21.967984	-72.532420	27.582894	11.496731	0.000000	49.405999	-28.662473	-17.167835	-71.598150	26.378400	18.089150	0.000000	-6.053269	2.008432	0.537220
